Coordinates
version=1
nRows=27
nColumns=12
inDegrees=yes

Units are S.I. units (second, meters, Newtons, ...)
Angles are in degrees

endheader
time	SC_y	SC_z	SC_x	AC_y	AC_z	AC_x	GH_y	GH_z	GH_yy	EL_x	PS_y
       0.0              -44.98          20.77          29.55          58.88         -5.043          12.84         -97.57          66.02          -26.1          138.3          26.89
   0.02573              -44.97          20.77          29.55          58.88         -5.041          12.84         -97.56          66.01          -26.1          138.3           26.9
   0.05145              -44.97          20.77          29.55          58.87         -5.039          12.84         -97.56          66.01         -26.11          138.3          26.92
   0.07718              -44.97          20.77          29.55          58.87         -5.037          12.84         -97.56           66.0         -26.11          138.3          26.93
    0.1029              -44.97          20.78          29.55          58.87         -5.035          12.84         -97.56           66.0         -26.11          138.3          26.94
    0.1286              -44.97          20.78          29.55          58.87         -5.032          12.84         -97.56          65.99         -26.11          138.2          26.96
    0.1544              -44.97          20.78          29.55          58.86          -5.03          12.84         -97.56          65.98         -26.12          138.2          26.97
    0.1801              -44.96          20.79          29.55          58.86         -5.027          12.84         -97.56          65.97         -26.12          138.2          26.99
    0.2058              -44.96          20.79          29.56          58.86         -5.024          12.84         -97.56          65.97         -26.13          138.2          27.01
    0.2315              -44.96          20.79          29.56          58.85         -5.021          12.84         -97.55          65.96         -26.13          138.2          27.03
    0.2573              -44.96           20.8          29.56          58.85         -5.017          12.84         -97.55          65.95         -26.13          138.2          27.05
     0.283              -44.95           20.8          29.56          58.84         -5.014          12.84         -97.55          65.94         -26.14          138.2          27.07
    0.3087              -44.95          20.81          29.56          58.84          -5.01          12.84         -97.55          65.93         -26.14          138.2          27.09
    0.3344              -44.95          20.81          29.56          58.83         -5.006          12.84         -97.55          65.92         -26.15          138.2          27.12
    0.3602              -44.94          20.82          29.57          58.83         -5.001          12.84         -97.55          65.91         -26.15          138.2          27.15
    0.3859              -44.94          20.82          29.57          58.82         -4.996          12.84         -97.54          65.89         -26.16          138.2          27.18
    0.4116              -44.93          20.83          29.57          58.81         -4.991          12.84         -97.54          65.88         -26.17          138.2          27.21
    0.4374              -44.93          20.84          29.57           58.8         -4.985          12.83         -97.54          65.86         -26.18          138.1          27.25
    0.4631              -44.92          20.85          29.58           58.8         -4.978          12.83         -97.53          65.85         -26.18          138.1          27.29
    0.4888              -44.92          20.85          29.58          58.79         -4.971          12.83         -97.53          65.83         -26.19          138.1          27.33
    0.5145              -44.91          20.86          29.59          58.78         -4.964          12.83         -97.53          65.81          -26.2          138.1          27.38
    0.5403               -44.9          20.87          29.59          58.77         -4.955          12.83         -97.52          65.78         -26.21          138.1          27.43
     0.566               -44.9          20.89          29.59          58.75         -4.946          12.83         -97.52          65.76         -26.23          138.1          27.49
    0.5917              -44.89           20.9           29.6          58.74         -4.935          12.83         -97.51          65.73         -26.24          138.0          27.55
    0.6174              -44.88          20.91           29.6          58.73         -4.924          12.83         -97.51           65.7         -26.26          138.0          27.62
    0.6432              -44.87          20.93          29.61          58.71         -4.911          12.83          -97.5          65.67         -26.27          138.0           27.7
    0.6689              -44.86          20.95          29.62          58.69         -4.896          12.82         -97.49          65.63         -26.29          138.0          27.79
